<?xml version="1.0" encoding="iso-8859-1"?>
<!-- Uploaded to: SVG Repo, www.svgrepo.com, Generator: SVG Repo Mixer Tools -->
<svg height="800px" width="800px" version="1.1" id="Layer_1" xmlns="http://www.w3.org/2000/svg" xmlns:xlink="http://www.w3.org/1999/xlink" 
	 viewBox="0 0 393.568 393.568" xml:space="preserve">
<circle style="fill:#FBD303;" cx="196.784" cy="196.784" r="196.784"/>
<g>
	<path style="fill:#F1F3F7;" d="M121.6,40.598l63.418,63.418h-15.192l-55.79-55.79c-2.133-2.133-2.133-5.495,0-7.628
		C116.105,38.529,119.467,38.529,121.6,40.598z"/>
	<path style="fill:#F1F3F7;" d="M257.034,48.226l-55.79,55.79h-15.192l63.418-63.418c2.133-2.069,5.495-2.069,7.628,0
		C259.168,42.731,259.168,46.158,257.034,48.226z"/>
	<path style="fill:#F1F3F7;" d="M324.396,120.307H69.172c-7.046,0-12.865,5.754-12.865,12.865v182.885
		c0,7.046,5.754,12.865,12.865,12.865h255.224c7.046,0,12.865-5.754,12.865-12.865V133.107
		C337.196,126.061,331.442,120.307,324.396,120.307z"/>
</g>
<path style="fill:#414753;" d="M244.752,296.598H100.655c-7.887,0-14.416-6.271-14.416-14.416V166.917
	c0-7.887,6.271-14.416,14.416-14.416h144.097c7.887,0,14.416,6.271,14.416,14.416V282.44
	C259.168,290.327,252.832,296.598,244.752,296.598z"/>
<g>
	<circle style="fill:#BDBDBE;" cx="297.115" cy="178.941" r="13.382"/>
	<circle style="fill:#BDBDBE;" cx="297.115" cy="224.582" r="13.382"/>
	<circle style="fill:#BDBDBE;" cx="297.115" cy="270.158" r="13.382"/>
	<path style="fill:#BDBDBE;" d="M220.121,104.016h-68.655c-8.921,0-16.226,7.305-16.226,16.226h100.848
		C236.089,111.386,229.042,104.016,220.121,104.016z"/>
	<polygon style="fill:#BDBDBE;" points="186.053,104.016 185.535,104.533 185.018,104.016 	"/>
</g>
<g>
	<circle style="fill:#4F5565;" cx="117.139" cy="43.766" r="12.606"/>
	<circle style="fill:#4F5565;" cx="253.091" cy="43.766" r="12.606"/>
</g>
</svg>